<svg width="192" height="40" viewBox="0 0 192 40" fill="none" xmlns="http://www.w3.org/2000/svg">
<path d="M21.0856 6.71925C21.0856 7.90868 20.9266 9.21922 20.6104 10.6509C20.2933 12.0838 19.887 13.529 19.3915 14.9883C18.8955 16.4476 18.3584 17.8665 17.7801 19.2446C17.2014 20.6227 16.6643 21.8389 16.1683 22.8928C15.8928 23.4873 15.5549 24.2373 15.1564 25.1425C14.7566 26.0484 14.3092 27.0139 13.8132 28.0406C13.3172 29.0681 12.7866 30.102 12.2226 31.1419C11.6578 32.1821 11.0721 33.1149 10.4666 33.9389C9.86014 34.7629 9.24028 35.4385 8.607 35.9655C7.97328 36.4924 7.33999 36.7559 6.70627 36.7559C5.82478 36.7559 5.19843 36.438 4.82634 35.8036C4.45425 35.1683 4.26842 34.4594 4.26842 33.6754C4.26842 32.919 4.39924 32.1146 4.6613 31.2634C4.92294 30.4122 5.25301 29.5679 5.65282 28.7299C6.05176 27.8927 6.49272 27.0819 6.97483 26.2979C7.45651 25.5143 7.90484 24.8123 8.31764 24.1901C7.76666 24.055 7.22953 23.8119 6.70627 23.4605C6.18301 23.1095 5.79749 22.6901 5.54929 22.2035C5.10876 21.258 4.65394 20.191 4.18612 19.0015C3.71744 17.8125 3.2977 16.6035 2.92562 15.3733C2.55396 14.1439 2.24382 12.915 1.99605 11.6848C1.74828 10.4554 1.62439 9.32758 1.62439 8.30006C1.62439 7.81349 1.67897 7.28018 1.78943 6.69886C1.89945 6.11795 2.08528 5.57784 2.34734 5.07768C2.60897 4.57751 2.9529 4.15936 3.38 3.82111C3.8071 3.48327 4.33686 3.31414 4.97102 3.31414C5.68704 3.31414 6.32032 3.57761 6.87174 4.10455C7.42273 4.63148 7.9109 5.30035 8.33843 6.11115C8.76553 6.92195 9.12983 7.82752 9.43347 8.82699C9.73625 9.8269 9.99789 10.8132 10.2188 11.7859C10.4388 12.759 10.6173 13.651 10.7555 14.4614C10.8932 15.2722 11.0171 15.9075 11.1276 16.3668C11.2376 15.9614 11.4234 15.347 11.6855 14.5221C11.9467 13.6982 12.2638 12.7862 12.6359 11.7859C13.0075 10.7864 13.4342 9.75933 13.9167 8.70546C14.3984 7.65159 14.9082 6.69248 15.4454 5.82729C15.9825 4.96294 16.5538 4.25328 17.1603 3.69957C17.7658 3.14586 18.3857 2.86837 19.0194 2.86837C19.4326 2.86837 19.777 3.01711 20.0525 3.31414C20.3276 3.61203 20.5411 3.96262 20.6931 4.36802C20.8439 4.77341 20.9474 5.19284 21.0029 5.62459C21.0579 6.05718 21.0856 6.42221 21.0856 6.71925Z" fill="white"/>
<path d="M29.1014 17.4611C28.6882 17.4611 28.323 17.6779 28.0064 18.1096C27.6893 18.5422 27.4281 19.0691 27.2215 19.6908C27.0149 20.3125 26.8559 20.9674 26.7463 21.6567C26.6358 22.3459 26.5808 22.9472 26.5808 23.4606C26.5808 24.1095 26.6428 24.8123 26.7667 25.5683C26.8905 26.3251 27.0625 27.0212 27.2834 27.6556C27.5035 28.2909 27.772 28.8183 28.0891 29.2369C28.4053 29.6559 28.7709 29.865 29.1841 29.865C29.6247 29.865 30.0033 29.6623 30.3203 29.2573C30.6365 28.8519 30.8917 28.339 31.0849 27.7168C31.2772 27.0956 31.4154 26.4131 31.4981 25.6694C31.5804 24.9266 31.622 24.231 31.622 23.5821C31.622 22.988 31.5661 22.3323 31.4565 21.6159C31.3461 20.9002 31.188 20.2318 30.9813 19.6097C30.7747 18.9884 30.5127 18.4746 30.1965 18.0692C29.8794 17.6638 29.5147 17.4611 29.1014 17.4611ZM28.6882 35.7832C27.2834 35.7832 26.0576 35.4186 25.011 34.689C23.9637 33.9589 23.0822 33.027 22.3666 31.892C21.6497 30.7569 21.1126 29.494 20.7548 28.1018C20.3965 26.7106 20.2177 25.3388 20.2177 23.9875C20.2177 22.5554 20.3965 21.0757 20.7548 19.5489C21.1126 18.0225 21.664 16.6299 22.4077 15.3734C23.1515 14.1168 24.1018 13.0901 25.2588 12.2929C26.4158 11.4961 27.7928 11.0971 29.3908 11.0971C30.9333 11.0971 32.2484 11.5093 33.3365 12.3337C34.4246 13.1581 35.2996 14.1848 35.9601 15.4142C36.6216 16.644 37.0894 17.9881 37.3653 19.4473C37.6404 20.9066 37.7374 22.2852 37.6547 23.5821C37.5719 25.0146 37.3445 26.4603 36.9724 27.9191C36.6008 29.3788 36.0567 30.6898 35.3407 31.8512C34.6243 33.0138 33.715 33.9589 32.6135 34.689C31.5115 35.4186 30.2025 35.7832 28.6882 35.7832Z" fill="white"/>
<path d="M57.8595 23.015C57.8595 24.5015 57.7079 25.9744 57.4051 27.4332C57.1014 28.8929 56.592 30.1967 55.876 31.3453C55.1596 32.4944 54.2027 33.4195 53.0046 34.1219C51.806 34.8243 50.3116 35.1758 48.5213 35.1758C46.7583 35.1758 45.2843 34.8311 44.1 34.1423C42.9153 33.4526 41.9723 32.5411 41.2697 31.4061C40.5676 30.271 40.0716 28.9881 39.7822 27.5552C39.4933 26.1227 39.3486 24.6638 39.3486 23.1774C39.3486 21.5558 39.541 19.9482 39.9269 18.3534C40.0096 17.9216 40.1677 17.3199 40.4021 16.5499C40.636 15.7795 40.9392 15.023 41.3113 14.2798C41.683 13.5366 42.1096 12.8953 42.5922 12.3544C43.0738 11.8138 43.6045 11.5436 44.1827 11.5436C44.7337 11.5436 45.1743 11.6923 45.5052 11.9893C45.8357 12.2872 46.0969 12.6582 46.2901 13.104C46.4824 13.5502 46.6063 14.0231 46.6617 14.5229C46.7168 15.023 46.7445 15.4756 46.7445 15.8806C46.7445 16.5027 46.6964 17.1108 46.5998 17.7049C46.5032 18.2998 46.3997 18.8943 46.2901 19.4884C46.1796 20.2992 46.0765 21.11 45.9804 21.9204C45.8833 22.7316 45.8357 23.542 45.8357 24.3528C45.8357 24.7582 45.8565 25.2112 45.8976 25.7109C45.9388 26.2111 46.0423 26.6904 46.2074 27.1494C46.3728 27.6096 46.6063 27.9946 46.9099 28.3048C47.2127 28.6163 47.6394 28.7714 48.1908 28.7714C48.9068 28.7714 49.4782 28.5827 49.9057 28.2037C50.3324 27.8255 50.649 27.3525 50.8561 26.7848C51.0627 26.2175 51.1926 25.6094 51.2485 24.9609C51.3031 24.3124 51.3313 23.7179 51.3313 23.1774C51.3313 21.9884 51.2485 20.8198 51.083 19.6707C50.918 18.5225 50.7664 17.3539 50.6287 16.1645C50.6009 16.0297 50.5871 15.8402 50.5871 15.5971C50.5871 15.1917 50.6559 14.7863 50.7937 14.3809C50.9314 13.9755 51.1246 13.6109 51.3724 13.2863C51.6202 12.9625 51.923 12.699 52.2816 12.4963C52.639 12.2936 53.0388 12.192 53.4797 12.192C54.0853 12.192 54.6224 12.4015 55.0911 12.8205C55.5589 13.24 55.9518 13.7801 56.2689 14.4417C56.5851 15.1042 56.8472 15.847 57.0538 16.6714C57.2604 17.4958 57.4259 18.3066 57.5498 19.1034C57.6736 19.9006 57.7559 20.6506 57.7975 21.3531C57.8387 22.0564 57.8595 22.6096 57.8595 23.015Z" fill="white"/>
<path d="M70.0073 36.0664C68.0511 36.0664 66.5294 35.8161 65.4413 35.3164C64.3528 34.8162 63.5406 34.1074 63.0039 33.1887C62.4663 32.2695 62.1423 31.1617 62.0327 29.8643C61.9223 28.5673 61.8673 27.1217 61.8673 25.5268C61.8673 24.2571 61.9089 22.9801 61.9916 21.6964C62.0739 20.4134 62.1978 19.0413 62.3632 17.582C61.9769 17.582 61.6745 17.5892 61.454 17.6024C61.2335 17.6164 61.0547 17.6228 60.9169 17.6228C60.0354 17.6228 59.2709 17.4337 58.6237 17.0551C57.977 16.6769 57.653 16.096 57.653 15.3119C57.653 14.8258 57.8388 14.3936 58.2105 14.015C58.5826 13.6368 59.0578 13.3126 59.636 13.0419C60.2147 12.7725 60.8407 12.5557 61.516 12.3934C62.1908 12.2315 62.8315 12.1236 63.4375 12.0692C63.4375 11.3132 63.4925 10.4752 63.603 9.55602C63.7125 8.63771 63.9127 7.77974 64.202 6.98211C64.4914 6.18533 64.8838 5.51646 65.3794 4.97551C65.8753 4.4354 66.5086 4.16471 67.2801 4.16471C67.7206 4.16471 68.1131 4.29346 68.4579 4.54971C68.8018 4.8068 69.0842 5.13146 69.3047 5.52284C69.5252 5.91464 69.6902 6.35361 69.8007 6.84018C69.9103 7.32674 69.9657 7.79971 69.9657 8.25865C69.9657 8.79961 69.9246 9.35332 69.8418 9.92105C69.7595 10.4884 69.6075 11.1912 69.3874 12.0288C69.8552 11.9748 70.1723 11.9413 70.3378 11.9272C70.5033 11.9141 70.654 11.9068 70.7922 11.9068C71.2604 11.9068 71.749 11.9476 72.2593 12.0288C72.7687 12.11 73.2365 12.2451 73.6641 12.4342C74.0907 12.6233 74.442 12.8736 74.7175 13.1838C74.9926 13.4949 75.1308 13.8667 75.1308 14.2984C75.1308 14.785 74.9306 15.2176 74.5317 15.5958C74.1319 15.9744 73.629 16.2987 73.0234 16.5685C72.4174 16.8392 71.7698 17.0487 71.0815 17.197C70.3928 17.3457 69.7452 17.4473 69.1397 17.5013C68.9742 18.6091 68.8568 19.629 68.7884 20.5613C68.7191 21.4937 68.6437 22.4328 68.561 23.3787C68.5055 23.8385 68.4579 24.3047 68.4167 24.7772C68.3751 25.2502 68.3548 25.73 68.3548 26.2161C68.3548 26.5675 68.3682 26.9797 68.3959 27.4523C68.4228 27.9257 68.5198 28.3782 68.6848 28.8104C68.8503 29.243 69.1119 29.6148 69.4702 29.9251C69.8275 30.2361 70.3235 30.3916 70.9577 30.3916C71.3427 30.3916 71.7425 30.3577 72.1558 30.2901C72.569 30.2229 72.9823 30.1885 73.3955 30.1885C74.1115 30.1885 74.6278 30.4316 74.9449 30.9186C75.2611 31.4047 75.4201 32.0264 75.4201 32.7828C75.4201 33.3501 75.2477 33.8439 74.9038 34.2625C74.559 34.6811 74.1249 35.0185 73.6021 35.276C73.0784 35.5322 72.4928 35.7281 71.8461 35.8633C71.1985 35.9984 70.5856 36.0664 70.0073 36.0664Z" fill="white"/>
<path d="M95.0053 24.1092C95.0053 24.569 94.998 25.2511 94.9846 26.1558C94.9703 27.0618 94.9291 28.0073 94.8607 28.9936C94.7914 29.9803 94.7017 30.9127 94.5921 31.7906C94.4817 32.669 94.3443 33.3107 94.1789 33.7156C93.9584 34.2294 93.669 34.6747 93.3112 35.0538C92.953 35.432 92.4705 35.6211 91.8649 35.6211C90.928 35.6211 90.2535 35.2561 89.8403 34.5269C89.4271 33.7972 89.1516 32.8921 89.0138 31.8106C88.8761 30.7304 88.8211 29.5545 88.8488 28.2839C88.8761 27.0142 88.8622 25.8388 88.8072 24.7573C88.7518 23.6771 88.6006 22.7715 88.3528 22.0415C88.105 21.3118 87.6507 20.9472 86.9892 20.9472C86.0804 20.9472 85.3843 21.0891 84.9027 21.373C84.4205 21.6569 84.0766 22.0283 83.8696 22.4876C83.6629 22.9474 83.5391 23.4744 83.4979 24.0685C83.4563 24.6634 83.4082 25.2847 83.3532 25.9331C83.2978 26.5553 83.2562 27.3928 83.2293 28.4463C83.2016 29.5006 83.0777 30.5408 82.8577 31.5675C82.6368 32.595 82.2721 33.4798 81.7627 34.2226C81.2524 34.9658 80.5021 35.3372 79.5106 35.3372C78.9046 35.3372 78.4156 35.1073 78.0439 34.6484C77.6719 34.189 77.3756 33.5941 77.1555 32.8649C76.9346 32.1352 76.7765 31.3244 76.6803 30.4325C76.5833 29.5405 76.5287 28.6689 76.5149 27.8182C76.5006 26.967 76.5006 26.1902 76.5149 25.4874C76.5287 24.7849 76.5357 24.258 76.5357 23.9061C76.5357 23.366 76.5565 22.474 76.5976 21.2311C76.6392 19.9881 76.728 18.6032 76.8662 17.0759C77.0035 15.5495 77.1828 13.9751 77.4033 12.3535C77.6238 10.7323 77.9127 9.25264 78.2709 7.91533C78.6287 6.57759 79.0623 5.49015 79.5726 4.65173C80.082 3.81458 80.681 3.4096 81.3698 3.43595C81.8103 3.46315 82.1893 3.65267 82.5064 4.00368C82.8226 4.35511 83.0847 4.80768 83.2913 5.36139C83.4979 5.91552 83.6699 6.51682 83.8076 7.16529C83.9454 7.81376 84.0489 8.45586 84.1178 9.09073C84.1862 9.72603 84.2274 10.3137 84.2417 10.8538C84.2551 11.3948 84.2624 11.8134 84.2624 12.1104C84.2624 12.8133 84.2482 13.5157 84.2213 14.2186C84.1931 14.9214 84.152 15.6239 84.097 16.3263C84.7303 15.4888 85.5775 14.7999 86.6383 14.259C87.6983 13.7184 88.7661 13.4482 89.8403 13.4482C91.2173 13.4482 92.2574 13.82 92.9599 14.5628C93.6625 15.3064 94.1646 16.2248 94.4682 17.319C94.771 18.4137 94.936 19.5759 94.9638 20.8053C94.9911 22.0355 95.0053 23.1361 95.0053 24.1092Z" fill="white"/>
<path d="M131.944 17.218C131.944 17.8125 131.917 18.6569 131.862 19.7516C131.807 20.8458 131.703 22.0488 131.552 23.3594C131.4 24.6703 131.186 26.0081 130.911 27.3726C130.636 28.7371 130.277 29.9737 129.837 31.0811C129.396 32.1894 128.859 33.1017 128.226 33.8178C127.591 34.5338 126.834 34.8916 125.953 34.8916C125.127 34.8916 124.369 34.6545 123.68 34.1824C122.992 33.7098 122.372 33.1281 121.821 32.4388C121.27 31.75 120.788 31.014 120.375 30.2299C119.962 29.4463 119.617 28.7303 119.342 28.0814C118.764 26.7033 118.185 25.3456 117.607 24.0078C117.028 22.6701 116.477 21.312 115.954 19.9339V21.0689C115.954 22.2311 115.947 23.3866 115.933 24.5348C115.919 25.6838 115.83 26.8248 115.665 27.9598C115.609 28.4196 115.547 28.953 115.478 29.5611C115.41 30.1692 115.306 30.7709 115.169 31.365C115.03 31.9595 114.831 32.514 114.57 33.0269C114.308 33.5407 113.956 33.9189 113.516 34.162C113.268 34.2971 113.041 34.3787 112.834 34.405C112.628 34.4322 112.4 34.4726 112.153 34.5266H112.028C111.395 34.5266 110.857 34.3175 110.417 33.8985C109.976 33.4799 109.604 32.9394 109.301 32.2773C108.998 31.6153 108.757 30.8724 108.579 30.0472C108.399 29.2236 108.261 28.4128 108.165 27.6156C108.068 26.8189 108.006 26.082 107.979 25.4063C107.951 24.7311 107.938 24.1901 107.938 23.7847C107.938 23.1635 107.965 22.2515 108.021 21.0485C108.075 19.8467 108.192 18.515 108.372 17.0561C108.55 15.5968 108.785 14.0968 109.074 12.5563C109.363 11.0159 109.742 9.61781 110.21 8.36124C110.678 7.10467 111.243 6.078 111.904 5.28037C112.566 4.48359 113.336 4.08456 114.218 4.08456C115.072 4.08456 115.836 4.4088 116.511 5.05727C117.186 5.70617 117.785 6.47617 118.309 7.36771C118.832 8.25968 119.273 9.19201 119.631 10.1647C119.989 11.1379 120.293 11.9487 120.54 12.5967C121.008 13.8677 121.463 15.1302 121.904 16.3868C122.344 17.6434 122.772 18.9204 123.184 20.2177C123.212 20.2721 123.268 20.4204 123.35 20.6635C123.433 20.9066 123.529 21.1773 123.639 21.4743C123.749 21.7985 123.887 22.1636 124.052 22.569C124.052 22.2179 124.046 21.9677 124.032 21.8189C124.017 21.6706 124.011 21.5351 124.011 21.4135V20.9474V20.0554C123.983 19.1638 123.962 18.2719 123.949 17.3799C123.935 16.4884 123.929 15.6104 123.929 14.7452C123.929 14.3675 123.935 13.8401 123.949 13.1644C123.962 12.4892 124.004 11.7659 124.073 10.9959C124.141 10.2255 124.245 9.44911 124.383 8.66508C124.52 7.88147 124.72 7.17224 124.982 6.53694C125.243 5.90249 125.574 5.3815 125.974 4.9761C126.373 4.57113 126.862 4.36843 127.441 4.36843C128.129 4.36843 128.722 4.62552 129.217 5.13844C129.713 5.6522 130.126 6.30789 130.457 7.10467C130.787 7.90187 131.049 8.79341 131.242 9.77972C131.434 10.7664 131.586 11.7324 131.696 12.6779C131.807 13.6242 131.875 14.5022 131.903 15.313C131.93 16.1233 131.944 16.7586 131.944 17.218Z" fill="white"/>
<path d="M142.935 17.4611C142.522 17.4611 142.157 17.6779 141.841 18.1096C141.523 18.5422 141.262 19.0691 141.055 19.6908C140.849 20.3125 140.69 20.9674 140.58 21.6567C140.47 22.3459 140.415 22.9472 140.415 23.4606C140.415 24.1095 140.477 24.8123 140.601 25.5683C140.724 26.3251 140.896 27.0212 141.117 27.6556C141.338 28.2909 141.606 28.8183 141.923 29.2369C142.24 29.6559 142.605 29.865 143.018 29.865C143.458 29.865 143.837 29.6623 144.154 29.2573C144.47 28.8519 144.726 28.339 144.919 27.7168C145.111 27.0956 145.249 26.4131 145.332 25.6694C145.415 24.9266 145.455 24.231 145.455 23.5821C145.455 22.988 145.4 22.3323 145.29 21.6159C145.18 20.9002 145.022 20.2318 144.815 19.6097C144.609 18.9884 144.347 18.4746 144.03 18.0692C143.713 17.6638 143.349 17.4611 142.935 17.4611ZM142.522 35.7832C141.117 35.7832 139.891 35.4186 138.845 34.689C137.798 33.9589 136.916 33.027 136.2 31.892C135.484 30.7569 134.947 29.494 134.589 28.1018C134.23 26.7106 134.052 25.3388 134.052 23.9875C134.052 22.5554 134.23 21.0757 134.589 19.5489C134.947 18.0225 135.498 16.6299 136.242 15.3734C136.985 14.1168 137.936 13.0901 139.093 12.2929C140.25 11.4961 141.627 11.0971 143.225 11.0971C144.767 11.0971 146.082 11.5093 147.17 12.3337C148.258 13.1581 149.133 14.1848 149.794 15.4142C150.455 16.644 150.923 17.9881 151.199 19.4473C151.474 20.9066 151.571 22.2852 151.488 23.5821C151.406 25.0146 151.178 26.4603 150.807 27.9191C150.435 29.3788 149.891 30.6898 149.174 31.8512C148.458 33.0138 147.549 33.9589 146.447 34.689C145.345 35.4186 144.037 35.7832 142.522 35.7832Z" fill="white"/>
<path d="M174.173 35.1348C173.291 35.1348 172.499 34.675 171.797 33.7567C171.095 32.8383 170.481 31.7369 169.958 30.4527C169.435 29.1698 169.001 27.8524 168.657 26.5011C168.312 25.1498 168.058 24.0279 167.892 23.1364C167.671 23.6773 167.376 24.3394 167.004 25.1226C166.632 25.9066 166.204 26.731 165.723 27.5953C165.241 28.4605 164.725 29.3321 164.174 30.2096C163.623 31.0884 163.051 31.8788 162.459 32.5808C161.866 33.2841 161.274 33.8514 160.682 34.2836C160.089 34.7158 159.518 34.9321 158.967 34.9321C158.224 34.9321 157.569 34.5811 157.005 33.8782C156.44 33.1758 155.965 32.257 155.579 31.122C155.193 29.9869 154.87 28.7304 154.608 27.3523C154.346 25.9737 154.147 24.5956 154.009 23.2175C153.871 21.839 153.775 20.5556 153.72 19.3666C153.664 18.1776 153.637 17.2181 153.637 16.4885C153.637 15.8132 153.671 15.1648 153.74 14.5426C153.809 13.9214 153.947 13.3672 154.154 12.8807C154.36 12.3945 154.663 12.0095 155.063 11.7256C155.462 11.4418 155.992 11.2999 156.654 11.2999C157.287 11.2999 157.831 11.5297 158.286 11.9891C158.74 12.4489 159.119 13.0498 159.422 13.7926C159.725 14.5363 159.973 15.3738 160.165 16.3057C160.358 17.2385 160.51 18.1844 160.62 19.1435C160.73 20.1031 160.806 21.0354 160.847 21.9406C160.889 22.8461 160.923 23.6225 160.951 24.2714C161.116 23.7041 161.349 23.0084 161.653 22.1836C161.956 21.3596 162.287 20.4813 162.645 19.5489C163.002 18.6166 163.395 17.6911 163.822 16.7723C164.249 15.8536 164.676 15.0292 165.104 14.2996C165.53 13.5699 165.95 12.9758 166.364 12.5161C166.777 12.0567 167.176 11.8268 167.562 11.8268H167.603C168.099 11.8268 168.581 12.0567 169.049 12.5161C169.517 12.9758 169.972 13.5699 170.412 14.2996C170.853 15.0292 171.266 15.8604 171.653 16.7923C172.038 17.7246 172.396 18.671 172.726 19.6301C173.057 20.5892 173.347 21.5216 173.594 22.4267C173.842 23.3327 174.049 24.1095 174.214 24.7575C174.241 23.9739 174.283 23.0892 174.338 22.1025C174.393 21.1166 174.496 20.1235 174.648 19.1231C174.799 18.1237 175.006 17.151 175.268 16.2046C175.529 15.2591 175.853 14.4147 176.239 13.6711C176.624 12.9283 177.1 12.3337 177.664 11.8876C178.228 11.4418 178.883 11.2187 179.627 11.2187C180.398 11.2187 180.969 11.4822 181.342 12.0095C181.713 12.536 181.899 13.1785 181.899 13.9345C181.899 14.7453 181.796 15.8264 181.589 17.1777C181.383 18.5291 181.1 19.9947 180.743 21.5755C180.384 23.1568 179.964 24.7512 179.482 26.3592C179 27.9672 178.47 29.4192 177.891 30.7166C177.313 32.0135 176.707 33.0742 176.073 33.8986C175.44 34.7221 174.806 35.1348 174.173 35.1348Z" fill="white"/>
<path d="M191.113 33.0263C191.113 33.4861 191.003 33.8847 190.783 34.2217C190.562 34.56 190.273 34.8434 189.915 35.0733C189.557 35.3024 189.172 35.4719 188.758 35.5803C188.345 35.6878 187.932 35.7422 187.519 35.7422C186.913 35.7422 186.334 35.5862 185.783 35.276C185.232 34.965 184.957 34.472 184.957 33.7964C184.957 33.3909 185.074 33.02 185.309 32.6817C185.542 32.3443 185.838 32.0536 186.197 31.8101C186.554 31.5666 186.947 31.3784 187.374 31.2428C187.801 31.1077 188.207 31.0401 188.593 31.0401C189.227 31.0401 189.805 31.1957 190.329 31.5063C190.852 31.8169 191.113 32.3239 191.113 33.0263ZM191.898 17.6228C191.898 18.0554 191.871 18.6431 191.816 19.3859C191.761 20.1296 191.678 20.9264 191.568 21.7775C191.458 22.6287 191.3 23.4939 191.093 24.3719C190.886 25.2502 190.645 26.0478 190.37 26.7635C190.094 27.4799 189.764 28.0604 189.378 28.5066C188.992 28.9524 188.552 29.175 188.056 29.175C187.45 29.175 186.933 28.8852 186.506 28.3039C186.079 27.7234 185.721 26.9798 185.432 26.0746C185.143 25.1695 184.916 24.1632 184.751 23.0545C184.585 21.9467 184.461 20.8592 184.379 19.7913C184.296 18.7243 184.247 17.738 184.234 16.8324C184.22 15.9273 184.213 15.2312 184.213 14.7447V12.9004C184.213 12.1576 184.247 11.3672 184.317 10.5292C184.385 9.69159 184.496 8.86082 184.647 8.036C184.798 7.21202 185.025 6.46199 185.329 5.78632C185.632 5.1115 186.032 4.56375 186.527 4.14475C187.023 3.72617 187.642 3.51625 188.387 3.51625C189.047 3.51625 189.591 3.79374 190.019 4.34745C190.445 4.90158 190.789 5.61804 191.051 6.49556C191.313 7.37435 191.506 8.35386 191.63 9.4345C191.754 10.5156 191.837 11.5767 191.878 12.6165C191.919 13.6572 191.933 14.6231 191.919 15.5151C191.905 16.4066 191.898 17.1095 191.898 17.6228Z" fill="white"/>
<path d="M28.2052 7.90665V5.44662C28.2052 5.17423 28.0844 4.88824 27.8882 4.69574C27.7002 4.51131 27.3922 4.37278 27.1223 4.38425C26.5354 4.41017 26.0394 4.85127 26.0394 5.44662V7.90665C26.0394 8.17904 26.1603 8.46503 26.3565 8.65795C26.5445 8.84196 26.8525 8.98091 27.1223 8.96902C27.7093 8.94309 28.2052 8.502 28.2052 7.90665Z" fill="#FFD900"/>
<path d="M33.3992 7.81973V5.53564C33.3992 5.26324 33.2783 4.97683 33.0821 4.78433C32.8941 4.60032 32.5861 4.46137 32.3162 4.47327C32.036 4.48559 31.7458 4.57568 31.5504 4.78433C31.3559 4.99213 31.2333 5.24795 31.2333 5.53564V7.81973C31.2333 8.09212 31.3542 8.37811 31.5504 8.57104C31.7384 8.75504 32.0464 8.894 32.3162 8.8821C32.5965 8.86978 32.8867 8.77969 33.0821 8.57104C33.2766 8.36324 33.3992 8.10742 33.3992 7.81973Z" fill="#FFD900"/>
<path d="M141.367 7.8627V5.40268C141.367 5.13028 141.247 4.84429 141.05 4.65179C140.862 4.46736 140.554 4.32883 140.285 4.34031C139.698 4.36623 139.202 4.80732 139.202 5.40268V7.8627C139.202 8.13509 139.322 8.42108 139.519 8.61401C139.707 8.79801 140.015 8.93697 140.285 8.92507C140.871 8.89915 141.367 8.45805 141.367 7.8627Z" fill="#FFD900"/>
<path d="M146.561 7.77481V5.49071C146.561 5.21832 146.441 4.93191 146.244 4.7394C146.056 4.5554 145.748 4.41644 145.478 4.42834C145.198 4.44067 144.908 4.53076 144.713 4.7394C144.518 4.9472 144.396 5.20302 144.396 5.49071V7.77481C144.396 8.0472 144.516 8.33319 144.713 8.52612C144.901 8.71012 145.209 8.84908 145.478 8.83718C145.759 8.82486 146.049 8.73477 146.244 8.52612C146.439 8.31832 146.561 8.0625 146.561 7.77481Z" fill="#FFD900"/>
</svg>
